<svg width="60" height="60" viewBox="0 0 60 60" xmlns="http://www.w3.org/2000/svg" xmlns:xlink="http://www.w3.org/1999/xlink"><title>/xbox360/a</title><defs><radialGradient cy="0%" fx="50%" fy="0%" r="122.429%" id="a"><stop stop-color="#1C241F" offset="0%"/><stop stop-color="#BFBFBF" offset="52.138%"/><stop stop-color="#474A48" offset="63.057%"/><stop stop-color="#262A28" offset="81.752%"/><stop stop-color="#0F1511" offset="100%"/></radialGradient><radialGradient fx="50%" fy="50%" r="49.957%" id="b"><stop stop-color="#87C646" offset="0%"/><stop stop-color="#83DC27" stop-opacity=".509" offset="100%"/></radialGradient><radialGradient cx="100%" cy="100%" fx="100%" fy="100%" r="100%" id="c"><stop stop-color="#4E8318" offset="0%"/><stop stop-color="#437510" offset="27.047%"/><stop stop-color="#447413" offset="71.792%"/><stop stop-color="#A0ED52" offset="100%"/></radialGradient><linearGradient x1="85.474%" y1="95.656%" x2="50%" y2="0%" id="e"><stop stop-color="#64A521" offset="0%"/><stop stop-color="#87C646" stop-opacity=".201" offset="100%"/></linearGradient><path d="M30.645 4.27a21.683 21.683 0 0 0-5.812-.788c-11.964 0-21.663 9.7-21.663 21.664 0 11.964 9.699 21.663 21.663 21.663a21.66 21.66 0 0 0 6.753-1.073c-3.038-7.026-4.646-14.353-4.646-21.885 0-6.712 1.277-13.262 3.705-19.58z" id="d"/><path d="M21.413 28.78l4.27-12.893h.081l4.27 12.893h-8.621zm12.183 10.564h4.716L27.586 9.836H23.84L13.115 39.344h4.736l2.266-6.598H31.31l2.287 6.598z" id="g"/><filter x="-50%" y="-50%" width="200%" height="200%" filterUnits="objectBoundingBox" id="f"><feOffset dy="1" in="SourceAlpha" result="shadowOffsetOuter1"/><feGaussianBlur stdDeviation=".5" in="shadowOffsetOuter1" result="shadowBlurOuter1"/><feColorMatrix values="0 0 0 0 0 0 0 0 0 0 0 0 0 0 0 0 0 0 0.5 0" in="shadowBlurOuter1"/></filter><radialGradient cx="100%" cy="100%" fx="100%" fy="100%" r="100%" id="h"><stop stop-color="#3C5F18" offset="0%"/><stop stop-color="#446F17" offset="27.047%"/><stop stop-color="#527A2A" offset="71.63%"/><stop stop-color="#87C646" offset="100%"/></radialGradient></defs><g fill="none" fill-rule="evenodd"><g transform="translate(5 5)"><circle fill="url(#a)" cx="25.237" cy="25.237" r="24.59"/><circle fill="#31560B" cx="25.237" cy="25.237" r="22.821"/><circle fill="url(#b)" cx="25.146" cy="25.146" r="21.515"/><use fill="url(#c)" xlink:href="#d"/><use fill="url(#e)" xlink:href="#d"/></g><g transform="translate(5 5)"><use fill="#000" filter="url(#f)" xlink:href="#g"/><use fill="#89DD32" xlink:href="#g"/></g><path d="M30.645 4.27a21.683 21.683 0 0 0-5.812-.788c-11.964 0-21.663 9.7-21.663 21.664 0 11.964 9.699 21.663 21.663 21.663a21.66 21.66 0 0 0 6.753-1.073c-3.038-7.026-4.646-14.353-4.646-21.885 0-6.712 1.277-13.262 3.705-19.58z" fill="url(#h)" opacity=".057" transform="translate(5 5)"/></g></svg>