<svg width="60" height="60" viewBox="0 0 60 60" xmlns="http://www.w3.org/2000/svg" xmlns:xlink="http://www.w3.org/1999/xlink"><title>/xbox360/b</title><defs><radialGradient cy="0%" fx="50%" fy="0%" r="122.429%" id="a"><stop stop-color="#1C241F" offset="0%"/><stop stop-color="#BFBFBF" offset="52.138%"/><stop stop-color="#474A48" offset="63.057%"/><stop stop-color="#262A28" offset="81.752%"/><stop stop-color="#0F1511" offset="100%"/></radialGradient><radialGradient fx="50%" fy="50%" r="51.221%" id="b"><stop stop-color="#E01D1C" offset="0%"/><stop stop-color="#AF2928" offset="100%"/></radialGradient><radialGradient cx="100%" cy="97.367%" fx="100%" fy="97.367%" r="97.367%" id="c"><stop stop-color="#A01717" stop-opacity=".771" offset="0%"/><stop stop-color="#C51C1B" stop-opacity=".754" offset="27.047%"/><stop stop-color="#FF1F1E" stop-opacity=".691" offset="71.792%"/><stop stop-color="#FF6766" stop-opacity=".529" offset="100%"/></radialGradient><linearGradient x1="73.145%" y1="61.268%" x2="50%" y2="0%" id="e"><stop stop-color="#F41E1D" offset="0%"/><stop stop-color="#C6C6C6" stop-opacity=".089" offset="100%"/></linearGradient><path d="M30.645 4.27a21.683 21.683 0 0 0-5.812-.788c-11.964 0-21.663 9.7-21.663 21.664 0 11.964 9.699 21.663 21.663 21.663a21.66 21.66 0 0 0 6.753-1.073c-3.038-7.026-4.646-14.353-4.646-21.885 0-6.712 1.277-13.262 3.705-19.58z" id="d"/><path d="M16.393 39.344H28.82c2.32 0 4.257-.776 5.809-2.327 1.565-1.484 2.36-3.502 2.388-6.052a8.28 8.28 0 0 0-1.154-4.27c-.823-1.268-2.037-2.112-3.643-2.53v-.08c.85-.406 1.565-.858 2.146-1.357.58-.472 1.025-.971 1.335-1.497.607-1.107.898-2.267.87-3.482 0-2.374-.735-4.283-2.205-5.727-1.458-1.43-3.637-2.159-6.538-2.186H16.393v29.508zM27.747 26.25c1.66.027 2.874.465 3.643 1.315.77.864 1.154 1.903 1.154 3.117 0 1.187-.385 2.213-1.154 3.076-.769.877-1.983 1.33-3.643 1.356h-6.88V26.25h6.88zm-.425-12.427c1.633.027 2.834.425 3.603 1.194.782.823 1.174 1.828 1.174 3.016 0 1.187-.392 2.172-1.174 2.955-.77.85-1.97 1.275-3.603 1.275h-6.456v-8.44h6.456z" id="g"/><filter x="-50%" y="-50%" width="200%" height="200%" filterUnits="objectBoundingBox" id="f"><feOffset dy="1" in="SourceAlpha" result="shadowOffsetOuter1"/><feGaussianBlur stdDeviation=".5" in="shadowOffsetOuter1" result="shadowBlurOuter1"/><feColorMatrix values="0 0 0 0 0 0 0 0 0 0 0 0 0 0 0 0 0 0 0.5 0" in="shadowBlurOuter1"/></filter><radialGradient cx="100%" cy="100%" fx="100%" fy="100%" r="100%" id="h"><stop stop-color="#6D1110" offset="0%"/><stop stop-color="#8B1111" offset="27.047%"/><stop stop-color="#FF1D1C" offset="71.792%"/><stop stop-color="#FF2524" offset="100%"/></radialGradient></defs><g fill="none" fill-rule="evenodd"><g transform="translate(5 5)"><circle fill="url(#a)" cx="25.237" cy="25.237" r="24.59"/><circle fill="#740D0C" cx="25.237" cy="25.237" r="22.821"/><circle fill="url(#b)" cx="25.146" cy="25.146" r="21.515"/><use fill="url(#c)" xlink:href="#d"/><use fill="url(#e)" xlink:href="#d"/></g><g transform="translate(5 5)"><use fill="#000" filter="url(#f)" xlink:href="#g"/><use fill="#FF3231" xlink:href="#g"/></g><path d="M30.645 4.27a21.683 21.683 0 0 0-5.812-.788c-11.964 0-21.663 9.7-21.663 21.664 0 11.964 9.699 21.663 21.663 21.663a21.66 21.66 0 0 0 6.753-1.073c-3.038-7.026-4.646-14.353-4.646-21.885 0-6.712 1.277-13.262 3.705-19.58z" fill="url(#h)" opacity=".057" transform="translate(5 5)"/></g></svg>