<svg width="60" height="60" viewBox="0 0 60 60" xmlns="http://www.w3.org/2000/svg" xmlns:xlink="http://www.w3.org/1999/xlink"><title>/xbox360/lt</title><defs><radialGradient cy="0%" fx="50%" fy="0%" r="122.429%" id="b"><stop stop-color="#1C241F" offset="0%"/><stop stop-color="#BFBFBF" offset="52.138%"/><stop stop-color="#474A48" offset="63.057%"/><stop stop-color="#262A28" offset="81.752%"/><stop stop-color="#0F1511" offset="100%"/></radialGradient><linearGradient x1="100%" y1="50%" x2="0%" y2="50%" id="e"><stop stop-color="#474749" offset="0%"/><stop stop-color="#19191B" offset="100%"/></linearGradient><radialGradient fx="50%" fy="50%" r="89.987%" id="c"><stop stop-color="#0F1511" offset="0%"/><stop stop-color="#727272" offset="100%"/></radialGradient><path d="M4.992 0C2.235 0 0 2.233 0 4.967v47.024c0 2.743 2.23 4.967 5.004 4.967h19.992c2.763 0 4.695-2.197 4.312-4.93 0 0-1.19-14.724 1.214-22.086 2.724-8.337 19.17-25.012 19.17-25.012C49.31 2.207 46.77 0 44.008 0H4.992z" id="a"/><mask id="d" x="0" y="0" width="49.692" height="56.958" fill="#fff"><use xlink:href="#a"/></mask></defs><g transform="translate(5)" fill="none" fill-rule="evenodd"><path d="M4.992 3C2.235 3 0 5.233 0 7.967v47.024c0 2.743 2.23 4.967 5.004 4.967h19.992c2.763 0 4.695-2.197 4.312-4.93 0 0-1.19-14.724 1.214-22.086 2.724-8.337 19.17-25.012 19.17-25.012.012-2.972.024-2.972.012-2.972L4.992 3z" fill="url(#b)" transform="matrix(-1 0 0 1 49.71 0)"/><use stroke="url(#c)" mask="url(#d)" stroke-width="4" fill="url(#e)" transform="matrix(-1 0 0 1 49.692 0)" xlink:href="#a"/><path d="M25.386 39V23.295h2.922v13.148h4.05V39h-6.972zm14.912 0h-2.911V25.862h-3.008v-2.567h8.927v2.567h-3.008V39z" fill="#FFF"/></g></svg>