<svg width="60" height="60" viewBox="0 0 60 60" xmlns="http://www.w3.org/2000/svg" xmlns:xlink="http://www.w3.org/1999/xlink"><title>/xbox360/x</title><defs><radialGradient cy="0%" fx="50%" fy="0%" r="122.429%" id="a"><stop stop-color="#1C241F" offset="0%"/><stop stop-color="#BFBFBF" offset="52.138%"/><stop stop-color="#474A48" offset="63.057%"/><stop stop-color="#262A28" offset="81.752%"/><stop stop-color="#0F1511" offset="100%"/></radialGradient><radialGradient fx="50%" fy="50%" r="51.221%" id="b"><stop stop-color="#4BA7E0" offset="0%"/><stop stop-color="#0F679C" offset="100%"/></radialGradient><radialGradient cx="100%" cy="100%" fx="100%" fy="100%" r="100%" id="c"><stop stop-color="#4FB1EC" offset="0%"/><stop stop-color="#4BA7DF" offset="27.047%"/><stop stop-color="#2F89C0" offset="71.792%"/><stop stop-color="#4FB1EC" offset="100%"/></radialGradient><linearGradient x1="73.145%" y1="61.268%" x2="50%" y2="0%" id="e"><stop stop-color="#1C74A9" offset="0%"/><stop stop-color="#C6C6C6" stop-opacity=".089" offset="100%"/></linearGradient><path d="M30.645 4.27a21.683 21.683 0 0 0-5.812-.788c-11.964 0-21.663 9.7-21.663 21.664 0 11.964 9.699 21.663 21.663 21.663a21.66 21.66 0 0 0 6.753-1.073c-3.038-7.026-4.646-14.353-4.646-21.885 0-6.712 1.277-13.262 3.705-19.58z" id="d"/><path id="g" d="M25.45 29.174l6.456 10.99h5.06L27.94 25.046l8.44-14.39h-5.04l-5.89 10.24-5.89-10.24h-5.059l8.46 14.39-9.027 15.118h5.04z"/><filter x="-50%" y="-50%" width="200%" height="200%" filterUnits="objectBoundingBox" id="f"><feOffset dy="1" in="SourceAlpha" result="shadowOffsetOuter1"/><feGaussianBlur stdDeviation=".5" in="shadowOffsetOuter1" result="shadowBlurOuter1"/><feColorMatrix values="0 0 0 0 0 0 0 0 0 0 0 0 0 0 0 0 0 0 0.5 0" in="shadowBlurOuter1"/></filter><radialGradient cx="100%" cy="100%" fx="100%" fy="100%" r="100%" id="h"><stop stop-color="#308AC1" offset="0%"/><stop stop-color="#1F77AD" offset="27.047%"/><stop stop-color="#2B7BAD" offset="71.792%"/><stop stop-color="#1D76AC" offset="100%"/></radialGradient></defs><g fill="none" fill-rule="evenodd"><g transform="translate(5 5)"><circle fill="url(#a)" cx="25.237" cy="25.237" r="24.59"/><circle fill="#4BA7DF" cx="25.237" cy="25.237" r="22.821"/><circle fill="url(#b)" cx="25.146" cy="25.146" r="21.515"/><use fill="url(#c)" xlink:href="#d"/><use fill="url(#e)" xlink:href="#d"/></g><g transform="translate(5 5)"><use fill="#000" filter="url(#f)" xlink:href="#g"/><use fill="#4FB1EC" xlink:href="#g"/></g><path d="M30.645 4.27a21.683 21.683 0 0 0-5.812-.788c-11.964 0-21.663 9.7-21.663 21.664 0 11.964 9.699 21.663 21.663 21.663a21.66 21.66 0 0 0 6.753-1.073c-3.038-7.026-4.646-14.353-4.646-21.885 0-6.712 1.277-13.262 3.705-19.58z" fill="url(#h)" opacity=".057" transform="translate(5 5)"/></g></svg>