<svg width="60" height="60" viewBox="0 0 60 60" xmlns="http://www.w3.org/2000/svg" xmlns:xlink="http://www.w3.org/1999/xlink"><title>/xbox360/y</title><defs><radialGradient cy="0%" fx="50%" fy="0%" r="122.429%" id="a"><stop stop-color="#1C241F" offset="0%"/><stop stop-color="#BFBFBF" offset="52.138%"/><stop stop-color="#474A48" offset="63.057%"/><stop stop-color="#262A28" offset="81.752%"/><stop stop-color="#0F1511" offset="100%"/></radialGradient><radialGradient fx="50%" fy="50%" r="51.221%" id="b"><stop stop-color="#FBB828" offset="0%"/><stop stop-color="#FFB21E" stop-opacity=".691" offset="100%"/></radialGradient><radialGradient cx="100%" cy="100%" fx="100%" fy="100%" r="100%" id="c"><stop stop-color="#DFC63E" offset="0%"/><stop stop-color="#F7D625" offset="27.047%"/><stop stop-color="#EFD236" offset="71.792%"/><stop stop-color="#FFE13F" offset="100%"/></radialGradient><linearGradient x1="73.145%" y1="61.268%" x2="50%" y2="0%" id="e"><stop stop-color="#E0A31F" offset="0%"/><stop stop-color="#FFE7B2" stop-opacity=".104" offset="100%"/></linearGradient><path d="M30.645 4.27a21.683 21.683 0 0 0-5.812-.788c-11.964 0-21.663 9.7-21.663 21.664 0 11.964 9.699 21.663 21.663 21.663a21.66 21.66 0 0 0 6.753-1.073c-3.038-7.026-4.646-14.353-4.646-21.885 0-6.712 1.277-13.262 3.705-19.58z" id="d"/><path id="g" d="M23.639 40.984h4.21V28.84l8.884-17.365h-4.735L25.744 24.57 19.49 11.475h-4.736L23.64 28.84z"/><filter x="-50%" y="-50%" width="200%" height="200%" filterUnits="objectBoundingBox" id="f"><feOffset dy="1" in="SourceAlpha" result="shadowOffsetOuter1"/><feGaussianBlur stdDeviation=".5" in="shadowOffsetOuter1" result="shadowBlurOuter1"/><feColorMatrix values="0 0 0 0 0 0 0 0 0 0 0 0 0 0 0 0 0 0 0.5 0" in="shadowBlurOuter1"/></filter><radialGradient cx="100%" cy="100%" fx="100%" fy="100%" r="100%" id="h"><stop stop-color="#E09732" offset="0%"/><stop stop-color="#EFB636" stop-opacity=".804" offset="28.245%"/><stop stop-color="#EFCA36" stop-opacity=".702" offset="71.792%"/><stop stop-color="#EFBC36" offset="100%"/></radialGradient></defs><g fill="none" fill-rule="evenodd"><g transform="translate(5 5)"><circle fill="url(#a)" cx="25.237" cy="25.237" r="24.59"/><circle fill="#84741E" cx="25.237" cy="25.237" r="22.821"/><circle fill="url(#b)" cx="25.146" cy="25.146" r="21.515"/><use fill="url(#c)" xlink:href="#d"/><use fill="url(#e)" xlink:href="#d"/></g><g transform="translate(5 5)"><use fill="#000" filter="url(#f)" xlink:href="#g"/><use fill="#F0D855" xlink:href="#g"/></g><path d="M30.645 4.27a21.683 21.683 0 0 0-5.812-.788c-11.964 0-21.663 9.7-21.663 21.664 0 11.964 9.699 21.663 21.663 21.663a21.66 21.66 0 0 0 6.753-1.073c-3.038-7.026-4.646-14.353-4.646-21.885 0-6.712 1.277-13.262 3.705-19.58z" fill="url(#h)" opacity=".057" transform="translate(5 5)"/></g></svg>