<svg width="60" height="60" viewBox="0 0 60 60" xmlns="http://www.w3.org/2000/svg" xmlns:xlink="http://www.w3.org/1999/xlink"><title>/ps4/l1</title><defs><linearGradient x1="50%" y1="0%" x2="50%" y2="122.429%" id="b"><stop stop-color="#1C241F" offset="0%"/><stop stop-color="#898989" offset="39.467%"/><stop stop-color="#757575" offset="71.917%"/><stop stop-color="#262A28" offset="81.752%"/><stop stop-color="#0F1511" offset="100%"/></linearGradient><linearGradient x1="50%" y1="0%" x2="50%" y2="100%" id="e"><stop stop-color="#474749" offset="0%"/><stop stop-color="#19191B" offset="100%"/></linearGradient><radialGradient fx="50%" fy="50%" r="89.987%" id="c"><stop stop-color="#0F1511" offset="0%"/><stop stop-color="#727272" offset="100%"/></radialGradient><path d="M0 14.995c0-2.759 1.9-6.162 4.316-7.512 0 0 10.737-7.483 25.723-7.483 14.987 0 25.653 7.477 25.653 7.477C58.072 8.87 60 12.236 60 14.995v10.01A5 5 0 0 1 55 30H5c-2.762 0-5-2.236-5-4.995v-10.01z" id="a"/><mask id="d" x="0" y="0" width="60" height="30" fill="#fff"><use xlink:href="#a"/></mask></defs><g transform="translate(0 15)" fill="none" fill-rule="evenodd"><path d="M0 16.99c0-2.756 1.906-6.157 4.315-7.5 0 0 10.786-7.49 25.76-7.49C45.052 2 55.7 9.477 55.7 9.477c2.374 1.393 4.3 4.766 4.3 7.513v8.02A4.998 4.998 0 0 1 55 30H5a5 5 0 0 1-5-4.99v-8.02z" fill="url(#b)"/><use stroke="url(#c)" mask="url(#d)" stroke-width="4" fill="url(#e)" xlink:href="#a"/><path d="M21 20.705V5h2.922v13.148h4.05v2.557H21zm17.286 0h-2.879v-9.217c0-1.002.05-2.155.15-3.459-.05.072-.234.29-.553.656-.318.365-.94 1.02-1.863 1.965l-1.633-1.783L35.687 5h2.6v15.705z" fill="#EEE"/></g></svg>