<svg width="60" height="60" viewBox="0 0 60 60" xmlns="http://www.w3.org/2000/svg"><title>/universal/l3</title><g transform="translate(2 2)" fill="none" fill-rule="evenodd"><circle fill="#D5D5D5" cx="28" cy="28" r="28"/><circle fill="#242424" cx="28" cy="28" r="19"/><path d="M19.386 36V20.295h2.922v13.148h4.05V36h-6.972zm18.36-12.17c0 .987-.243 1.816-.73 2.486-.487.67-1.175 1.133-2.063 1.391v.086c.988.158 1.753.544 2.294 1.16.54.616.81 1.454.81 2.514 0 1.446-.449 2.6-1.348 3.459-.898.86-2.128 1.289-3.69 1.289-1.389 0-2.556-.247-3.501-.741v-2.621a6.55 6.55 0 0 0 1.536.676 5.55 5.55 0 0 0 1.59.247c.83 0 1.457-.191 1.88-.574.422-.383.633-.99.633-1.821 0-1.569-.963-2.353-2.89-2.353h-.891v-2.18h.849c.852 0 1.505-.2 1.96-.602.455-.4.682-.999.682-1.794 0-.623-.145-1.094-.435-1.412-.29-.32-.7-.478-1.23-.478-.81 0-1.597.343-2.363 1.03l-1.321-1.933c1.06-1.06 2.395-1.59 4.006-1.59 1.325 0 2.36.335 3.105 1.005.745.67 1.117 1.588 1.117 2.755z" fill="#FFF"/><path d="M28.929 8.071l-7-6h14zm0 40l-7 6h14z" fill="#242424"/></g></svg>