<svg width="60" height="60" viewBox="0 0 60 60" xmlns="http://www.w3.org/2000/svg" xmlns:xlink="http://www.w3.org/1999/xlink"><title>/ps4/l2</title><defs><linearGradient x1="50%" y1="0%" x2="50%" y2="122.429%" id="b"><stop stop-color="#1C241F" offset="0%"/><stop stop-color="#898989" offset="39.467%"/><stop stop-color="#757575" offset="71.917%"/><stop stop-color="#262A28" offset="81.752%"/><stop stop-color="#0F1511" offset="100%"/></linearGradient><linearGradient x1="50%" y1="0%" x2="50%" y2="100%" id="e"><stop stop-color="#474749" offset="0%"/><stop stop-color="#19191B" offset="100%"/></linearGradient><radialGradient fx="50%" fy="50%" r="89.987%" id="c"><stop stop-color="#0F1511" offset="0%"/><stop stop-color="#727272" offset="100%"/></radialGradient><path d="M0 4.99A4.998 4.998 0 0 1 5 0h50c2.762 0 5 2.247 5 4.99v13.02c0 2.756-1.409 6.73-3.225 8.81 0 0-11.942 16.18-26.893 16.18C14.93 43 3.19 26.833 3.19 26.833 1.428 24.716 0 20.753 0 18.009V4.991z" id="a"/><mask id="d" x="0" y="0" width="60" height="43" fill="#fff"><use xlink:href="#a"/></mask></defs><g transform="translate(0 5)" fill="none" fill-rule="evenodd"><path d="M0 6.99A4.998 4.998 0 0 1 5 2h50c2.762 0 5 2.247 5 4.99v13.02c0 2.756-1.41 6.73-3.228 8.81 0 0-11.957 16.18-26.903 16.18-14.946 0-26.68-16.167-26.68-16.167C1.428 26.716 0 22.753 0 20.009V6.991z" fill="url(#b)" transform="matrix(-1 0 0 1 60 0)"/><use stroke="url(#c)" mask="url(#d)" stroke-width="4" fill="url(#e)" transform="matrix(-1 0 0 1 60 0)" xlink:href="#a"/><path d="M21 20.93V5.227h2.922v13.148h4.05v2.557H21zm18.672 0H31.25v-2.18l2.793-3.953c.766-1.089 1.293-1.896 1.58-2.422a7.365 7.365 0 0 0 .633-1.515c.136-.484.204-.983.204-1.499 0-.601-.134-1.052-.403-1.353-.268-.301-.618-.451-1.047-.451-.38 0-.734.1-1.064.3-.33.2-.73.563-1.203 1.085L31.11 7.224c.752-.853 1.45-1.436 2.095-1.751A4.705 4.705 0 0 1 35.3 5c1.267 0 2.257.372 2.97 1.117.713.745 1.069 1.78 1.069 3.105a7.3 7.3 0 0 1-.193 1.708 8.009 8.009 0 0 1-.586 1.616 13.62 13.62 0 0 1-.983 1.687c-.394.584-1.41 1.921-3.05 4.012v.086h5.145v2.6z" fill="#EEE"/></g></svg>