<svg width="60" height="60" viewBox="0 0 60 60" xmlns="http://www.w3.org/2000/svg" xmlns:xlink="http://www.w3.org/1999/xlink"><title>/ps4/r1</title><defs><linearGradient x1="50%" y1="0%" x2="50%" y2="122.429%" id="b"><stop stop-color="#1C241F" offset="0%"/><stop stop-color="#898989" offset="39.467%"/><stop stop-color="#757575" offset="71.917%"/><stop stop-color="#262A28" offset="81.752%"/><stop stop-color="#0F1511" offset="100%"/></linearGradient><linearGradient x1="50%" y1="0%" x2="50%" y2="100%" id="e"><stop stop-color="#474749" offset="0%"/><stop stop-color="#19191B" offset="100%"/></linearGradient><radialGradient fx="50%" fy="50%" r="89.987%" id="c"><stop stop-color="#0F1511" offset="0%"/><stop stop-color="#727272" offset="100%"/></radialGradient><path d="M0 14.995c0-2.759 1.9-6.162 4.316-7.512 0 0 10.737-7.483 25.723-7.483 14.987 0 25.653 7.477 25.653 7.477C58.072 8.87 60 12.236 60 14.995v10.01A5 5 0 0 1 55 30H5c-2.762 0-5-2.236-5-4.995v-10.01z" id="a"/><mask id="d" x="0" y="0" width="60" height="30" fill="#fff"><use xlink:href="#a"/></mask></defs><g transform="translate(0 15)" fill="none" fill-rule="evenodd"><path d="M0 16.99c0-2.756 1.906-6.157 4.315-7.5 0 0 10.786-7.49 25.76-7.49C45.052 2 55.7 9.477 55.7 9.477c2.374 1.393 4.3 4.766 4.3 7.513v8.02A4.998 4.998 0 0 1 55 30H5a5 5 0 0 1-5-4.99v-8.02z" fill="url(#b)"/><use stroke="url(#c)" mask="url(#d)" stroke-width="4" fill="url(#e)" xlink:href="#a"/><path d="M22.922 14.593v6.112H20V5h3.824c1.619 0 2.813.383 3.583 1.15.77.766 1.155 1.937 1.155 3.512 0 1.984-.67 3.37-2.01 4.157l3.02 6.886h-3.127l-2.481-6.112h-1.042zm0-2.514h.752c.687 0 1.181-.195 1.482-.585.301-.39.451-.973.451-1.746 0-.802-.159-1.373-.478-1.713-.318-.34-.81-.51-1.477-.51h-.73v4.554zm16.523 8.626h-2.879v-9.217c0-1.002.05-2.155.15-3.459-.05.072-.234.29-.552.656-.32.365-.94 1.02-1.864 1.965l-1.633-1.783L36.846 5h2.6v15.705z" fill="#EEE"/></g></svg>